<?xml version="1.0" standalone="no"?>
<!DOCTYPE svg PUBLIC "-//W3C//DTD SVG 20010904//EN"
 "http://www.w3.org/TR/2001/REC-SVG-20010904/DTD/svg10.dtd">
<svg version="1.0" xmlns="http://www.w3.org/2000/svg"
 width="500.000000pt" height="500.000000pt" viewBox="0 0 500.000000 500.000000"
 preserveAspectRatio="xMidYMid meet">
<metadata>
Created by potrace 1.14, written by Peter Selinger 2001-2017
</metadata>
<g transform="translate(0.000000,500.000000) scale(0.100000,-0.100000)"
fill="#000000" stroke="none">
<path d="M2248 3993 c-23 -6 -22 -17 2 -88 11 -32 17 -62 13 -66 -14 -11 -106
-39 -112 -33 -3 3 -15 33 -27 67 -20 60 -36 75 -61 59 -10 -6 -2 -41 33 -146
41 -123 48 -137 68 -134 22 3 24 17 11 73 -7 30 -6 31 50 49 31 10 59 16 61
14 2 -3 10 -22 18 -44 10 -29 18 -38 32 -36 11 2 22 7 25 10 7 9 -80 282 -89
281 -4 -1 -15 -3 -24 -6z"/>
<path d="M2667 3863 c-40 -123 -43 -139 -29 -150 27 -22 37 -15 50 33 10 37
16 45 30 39 29 -12 90 -18 116 -11 50 12 77 116 41 156 -16 17 -72 43 -142 64
-21 7 -25 -1 -66 -131z m165 34 c11 -17 10 -35 -2 -58 -11 -19 -44 -24 -88
-13 -20 6 -22 11 -16 38 3 17 10 41 15 54 8 22 10 22 46 7 21 -9 41 -21 45
-28z"/>
<path d="M2988 3735 c-49 -57 -88 -108 -88 -113 0 -5 7 -16 16 -23 15 -12 21
-9 48 23 l32 36 49 -43 50 -43 -30 -31 c-23 -25 -27 -35 -19 -48 6 -9 15 -18
21 -20 12 -4 188 201 188 218 0 7 -7 16 -16 22 -17 10 -27 1 -96 -81 l-18 -22
-48 43 -49 42 47 58 c39 47 45 60 35 72 -7 8 -18 15 -24 15 -6 -1 -50 -48 -98
-105z"/>
<path d="M1857 3809 c-23 -13 -22 -32 4 -55 12 -10 35 -37 52 -58 l31 -39
-127 7 c-70 4 -127 3 -127 -1 0 -4 47 -57 104 -118 99 -105 105 -109 122 -93
20 19 23 15 -66 112 l-35 38 128 -7 c70 -4 127 -4 127 0 0 8 -33 47 -129 152
-54 59 -69 70 -84 62z"/>
<path d="M3278 3480 c-102 -52 -128 -77 -128 -123 0 -62 60 -137 110 -137 18
0 230 101 230 110 0 3 -6 14 -13 24 -12 16 -19 14 -112 -29 -108 -50 -134 -52
-154 -9 -20 45 -5 62 100 114 54 28 99 53 99 56 0 11 -21 44 -28 43 -4 0 -51
-22 -104 -49z"/>
<path d="M3460 3451 c0 -12 20 -27 48 -35 28 -9 31 19 3 34 -24 12 -51 13 -51
1z"/>
<path d="M1547 3397 c-7 -19 208 -234 218 -217 4 7 -6 25 -25 45 l-32 33 17
46 c22 56 28 60 81 57 30 -2 43 2 47 13 3 8 3 17 -1 20 -4 2 -73 7 -153 11
-123 6 -147 5 -152 -8z m154 -27 c16 0 16 -2 2 -40 -9 -22 -19 -40 -22 -40 -4
0 -27 21 -51 46 l-45 47 49 -7 c27 -3 57 -6 67 -6z"/>
<path d="M2384 3386 c-17 -13 -19 -28 -20 -143 0 -82 -9 -179 -24 -271 -23
-145 -27 -154 -91 -241 -18 -24 -22 -47 -26 -154 -5 -117 -7 -125 -24 -117
-30 17 -57 11 -78 -16 -24 -30 -27 -72 -8 -97 7 -10 32 -24 57 -31 44 -13 45
-14 48 -60 l3 -47 -78 3 c-76 3 -78 3 -91 -25 -10 -22 -11 -35 -2 -62 14 -43
40 -58 88 -51 43 7 82 -19 82 -54 0 -20 -3 -21 -60 -14 -50 5 -64 4 -80 -11
-24 -22 -26 -72 -4 -103 13 -19 24 -22 80 -22 l64 0 0 -35 c0 -31 -3 -35 -36
-41 -20 -4 -41 -16 -50 -29 -30 -46 13 -111 64 -98 l24 6 -4 -151 c-4 -175 -3
-176 81 -192 65 -12 348 -13 411 -1 28 6 53 19 67 35 21 25 22 31 16 166 -5
124 -4 140 10 140 20 0 47 38 47 66 0 12 -13 36 -30 54 -33 35 -41 66 -14 56
9 -3 20 -6 25 -6 5 0 9 -15 9 -34 0 -47 22 -64 55 -42 30 20 32 46 5 71 -18
16 -18 19 -3 41 19 29 12 87 -13 115 -13 15 -14 22 -5 33 9 11 11 34 6 80 -6
58 -5 66 14 82 26 23 26 39 1 71 -11 14 -17 30 -13 36 12 20 2 171 -13 188 -8
8 -14 23 -14 33 0 22 -16 52 -51 97 -17 22 -29 49 -29 67 0 18 -12 44 -31 68
-51 64 -59 87 -85 255 -18 117 -24 185 -20 252 4 89 -3 123 -28 139 -21 14
-211 9 -232 -6z m191 -405 c34 -7 37 -9 20 -17 -11 -5 -55 -9 -97 -9 -43 1
-78 -3 -78 -7 0 -4 38 -8 84 -8 l83 0 7 -57 c4 -32 11 -65 17 -73 7 -11 9 2 4
45 -3 33 -8 68 -11 78 -3 9 -1 17 4 17 5 0 12 -23 16 -51 8 -57 32 -110 80
-178 l31 -43 1 -227 1 -226 -6 216 -6 215 -40 58 c-38 55 -55 74 -55 61 0 -3
18 -33 40 -65 l40 -59 0 -211 c0 -182 -2 -211 -16 -217 -9 -3 -21 3 -30 16
-20 27 -64 28 -71 1 -5 -18 -14 -20 -83 -20 -124 0 -200 10 -200 28 0 11 7 13
33 8 103 -22 127 -17 127 30 0 22 -59 76 -136 124 -13 8 -24 22 -24 30 -1 12
-3 12 -14 -2 -7 -10 -16 -18 -20 -18 -3 0 -6 58 -6 129 l0 128 36 47 c45 59
70 117 79 181 9 63 19 75 60 75 19 0 36 -6 38 -12 3 -8 6 -6 6 5 1 19 21 21
86 8z m265 -473 c0 -23 -4 -28 -25 -28 -24 0 -25 3 -25 62 l0 62 25 -34 c14
-19 25 -47 25 -62z m30 -118 c0 -61 -2 -69 -21 -75 -11 -4 -22 -5 -24 -3 -2 1
-6 35 -10 75 -7 70 -7 71 16 75 13 2 27 2 32 0 4 -2 7 -34 7 -72z m-640 33
c53 -30 64 -44 28 -36 -22 4 -22 3 2 -11 14 -8 20 -15 13 -16 -6 0 -9 -8 -6
-19 8 -30 -10 -32 -76 -10 -70 24 -86 50 -57 94 21 32 34 31 96 -2z m579 -90
c1 -13 -3 -23 -9 -23 -6 0 -10 27 -9 63 1 59 2 60 10 22 4 -22 8 -50 8 -62z
m-450 33 c14 -14 42 -38 61 -55 48 -41 33 -56 -39 -39 -39 9 -50 15 -46 27 5
12 2 12 -13 -2 -17 -15 -52 -24 -52 -12 0 2 6 19 14 37 8 18 17 41 20 51 7 24
25 21 55 -7z m515 -108 c13 -18 13 -23 1 -32 -8 -6 -21 -28 -30 -49 -15 -35
-14 -39 7 -75 20 -36 20 -72 0 -72 -5 0 -22 10 -37 21 -25 20 -26 26 -20 73 3
28 7 71 9 95 5 61 41 81 70 39z m-584 -8 c0 -5 -4 -10 -10 -10 -5 0 -10 5 -10
10 0 6 5 10 10 10 6 0 10 -4 10 -10z m358 -23 c3 -12 -3 -17 -22 -17 -25 0
-35 18 -19 34 12 12 38 2 41 -17z m242 -16 c0 -5 -7 -14 -15 -21 -16 -14 -18
-10 -9 14 6 17 24 22 24 7z m-714 -24 c1 -1 4 -17 7 -34 6 -29 4 -33 -16 -34
-21 -1 -20 -1 3 -8 21 -6 18 -8 -24 -14 -29 -4 -54 -3 -61 3 -17 14 -23 52
-13 80 7 20 12 22 56 15 26 -4 47 -8 48 -8z m86 -6 c13 -5 42 -14 66 -20 25
-7 42 -18 42 -27 0 -16 -7 -19 -62 -29 -32 -5 -38 -3 -38 12 0 14 -3 12 -13
-7 -7 -14 -21 -26 -32 -28 -18 -2 -20 4 -22 53 -1 60 7 66 59 46z m597 -43 c0
-27 -2 -29 -8 -13 -5 11 -6 26 -4 33 8 21 13 13 12 -20z m-482 -70 c6 -7 11
-30 11 -51 1 -31 -2 -38 -16 -35 -9 2 -16 10 -14 17 2 8 -8 11 -30 9 -32 -3
-33 -1 -36 35 l-3 37 39 0 c22 0 44 -6 49 -12z m121 0 c-3 -7 -18 -16 -34 -19
l-29 -7 28 -1 c17 -1 27 -7 27 -16 0 -9 -10 -15 -27 -16 l-28 -1 29 -7 c16 -3
31 -12 34 -19 3 -10 -7 -12 -39 -10 l-44 3 -3 53 -3 52 46 0 c33 0 45 -4 43
-12z m110 0 c-3 -7 -18 -16 -34 -19 l-29 -7 28 -1 c17 -1 27 -7 27 -16 0 -9
-10 -15 -27 -16 l-28 -1 29 -7 c49 -10 44 -31 -8 -31 l-46 0 0 55 0 55 46 0
c32 0 44 -4 42 -12z m107 -4 c14 -14 14 -19 1 -39 -13 -20 -13 -24 2 -39 15
-15 15 -16 -3 -16 -10 0 -27 7 -37 17 -17 15 -18 15 -18 0 0 -10 -8 -17 -20
-17 -18 0 -20 7 -20 55 l0 55 39 0 c23 0 46 -7 56 -16z m105 -39 c0 -2 -7 -5
-15 -9 -9 -3 -15 0 -15 9 0 9 6 12 15 9 8 -4 15 -7 15 -9z m34 -57 c12 -26 15
-29 18 -12 4 16 6 15 12 -8 18 -62 -23 -105 -73 -78 -17 9 -21 20 -21 65 0 52
6 62 38 64 7 1 19 -13 26 -31z m-654 13 c25 -5 37 -9 27 -10 -10 0 -15 -6 -12
-12 4 -6 14 -8 22 -5 11 5 14 -1 11 -27 l-3 -32 -73 -3 c-68 -3 -73 -2 -83 22
-6 13 -9 36 -5 50 7 29 30 32 116 17z m131 -36 c5 -23 7 -25 8 -7 1 18 7 22
34 22 18 0 42 -7 53 -15 16 -13 17 -16 4 -25 -8 -5 -24 -10 -35 -10 -18 -1
-59 -14 -105 -34 -13 -5 -16 3 -16 49 -1 55 -1 56 25 53 20 -2 27 -10 32 -33z
m-31 -115 c12 -8 11 -10 -7 -10 -13 0 -23 5 -23 10 0 13 11 13 30 0z m442
-170 c1 -99 2 -201 3 -227 0 -40 -3 -48 -20 -52 -20 -3 -20 -3 -1 17 13 15 17
30 13 54 -3 18 -9 49 -12 68 -14 81 -19 88 -25 35 -6 -40 -7 -31 -8 48 -1 57
-6 97 -12 97 -6 0 -10 -38 -10 -94 l0 -95 -57 -7 c-32 -4 -118 -4 -193 -1 -74
3 -123 2 -109 -2 44 -14 210 -21 308 -13 93 7 93 7 103 -17 22 -59 -14 -80
-141 -82 -60 -2 -63 -2 -26 -9 24 -5 -21 -8 -117 -7 -169 2 -181 6 -180 54 2
115 16 243 27 243 7 0 33 11 56 25 54 30 56 30 55 3 -1 -18 5 -23 24 -23 18 0
26 6 28 23 2 12 -2 22 -9 22 -8 0 -6 6 4 18 10 10 17 28 17 40 0 20 5 22 63
23 34 0 94 9 132 19 39 10 73 18 78 19 4 0 8 -80 9 -179z m146 123 c-16 -15
-18 -15 -24 0 -3 9 -3 25 0 34 6 15 8 15 24 0 15 -16 15 -18 0 -34z m-451 -9
c2 -7 -17 -20 -42 -30 -37 -14 -48 -15 -54 -5 -6 9 -10 7 -13 -7 -3 -11 -15
-25 -27 -31 -19 -11 -21 -9 -21 23 0 19 -3 42 -6 51 -6 14 3 16 76 13 52 -2
85 -7 87 -14z m393 -44 c0 -20 -23 -43 -33 -33 -4 3 -7 27 -7 52 l1 46 19 -24
c11 -13 20 -31 20 -41z m-580 40 c0 -5 -8 -10 -17 -11 -14 0 -13 -2 5 -9 47
-19 10 -60 -54 -60 -26 0 -46 33 -36 58 9 26 102 45 102 22z m182 -75 c0 -5
-5 -11 -11 -13 -6 -2 -11 4 -11 13 0 9 5 15 11 13 6 -2 11 -8 11 -13z m256
-322 c-10 -2 -26 -2 -35 0 -10 3 -2 5 17 5 19 0 27 -2 18 -5z"/>
<path d="M2356 2735 c-43 -33 -56 -67 -55 -145 1 -67 2 -71 10 -35 4 22 8 57
8 77 1 29 10 47 37 78 36 40 36 52 0 25z"/>
<path d="M2493 2554 c-8 -21 13 -42 28 -27 13 13 5 43 -11 43 -6 0 -13 -7 -17
-16z"/>
<path d="M2403 2504 c-7 -18 17 -38 31 -24 11 11 1 40 -14 40 -6 0 -13 -7 -17
-16z"/>
<path d="M2524 2415 c-9 -23 3 -45 25 -45 23 0 35 28 20 46 -15 18 -38 18 -45
-1z m36 -21 c0 -9 -5 -14 -12 -12 -18 6 -21 28 -4 28 9 0 16 -7 16 -16z"/>
<path d="M2616 2353 c-4 -9 0 -23 9 -32 13 -14 17 -14 30 0 19 19 10 49 -15
49 -10 0 -21 -8 -24 -17z m34 -13 c0 -5 -4 -10 -10 -10 -5 0 -10 5 -10 10 0 6
5 10 10 10 6 0 10 -4 10 -10z"/>
<path d="M2504 2275 c-9 -23 3 -45 25 -45 25 0 34 14 26 40 -7 23 -43 27 -51
5z m31 -25 c-5 -8 -11 -8 -17 -2 -6 6 -7 16 -3 22 5 8 11 8 17 2 6 -6 7 -16 3
-22z"/>
<path d="M2328 2043 c6 -2 18 -2 25 0 6 3 1 5 -13 5 -14 0 -19 -2 -12 -5z"/>
<path d="M2660 2040 c0 -5 7 -10 15 -10 8 0 15 5 15 10 0 6 -7 10 -15 10 -8 0
-15 -4 -15 -10z"/>
<path d="M2701 1708 c0 -50 3 -67 9 -53 12 28 12 113 0 120 -6 4 -10 -21 -9
-67z"/>
<path d="M2553 1754 c-3 -8 1 -22 9 -30 13 -14 17 -14 32 1 13 13 14 20 5 31
-15 19 -38 18 -46 -2z m34 -20 c-9 -9 -28 6 -21 18 4 6 10 6 17 -1 6 -6 8 -13
4 -17z"/>
<path d="M2492 1688 c2 -15 10 -23 23 -23 13 0 21 8 23 23 3 18 -1 22 -23 22
-22 0 -26 -4 -23 -22z m38 4 c0 -13 -12 -22 -22 -16 -10 6 -1 24 13 24 5 0 9
-4 9 -8z"/>
<path d="M1835 3270 c-4 -7 -3 -16 3 -22 14 -14 45 -2 40 15 -6 16 -34 21 -43
7z"/>
<path d="M3347 3126 c-51 -19 -67 -34 -90 -85 -24 -55 -16 -119 19 -159 23
-25 25 -26 38 -9 11 15 11 23 -6 57 -25 50 -17 90 24 125 69 58 168 13 168
-77 0 -24 -5 -49 -12 -56 -14 -14 6 -67 22 -57 42 26 55 142 23 197 -35 59
-117 88 -186 64z"/>
<path d="M1450 3091 l0 -31 75 0 75 0 0 -42 c0 -85 -3 -88 -86 -88 -71 0 -74
-1 -74 -23 0 -23 3 -24 107 -30 58 -4 126 -7 150 -7 42 0 44 1 41 28 -3 25 -7
27 -50 30 -53 3 -53 3 -42 86 l7 48 46 -4 c38 -2 46 0 49 16 2 10 0 22 -5 26
-4 4 -72 11 -150 15 l-143 6 0 -30z"/>
<path d="M1560 2055 c0 -430 3 -655 10 -655 7 0 10 225 10 655 0 430 -3 655
-10 655 -7 0 -10 -225 -10 -655z"/>
<path d="M1610 2048 c0 -432 4 -658 10 -648 13 21 13 1310 0 1310 -7 0 -10
-227 -10 -662z"/>
<path d="M3370 2315 c0 -257 4 -395 10 -395 6 0 10 138 10 395 0 257 -4 395
-10 395 -6 0 -10 -138 -10 -395z"/>
<path d="M3410 2323 c0 -233 4 -394 10 -403 6 -10 10 124 10 388 0 261 -3 402
-10 402 -6 0 -10 -136 -10 -387z"/>
<path d="M2953 1905 c-39 -17 -53 -53 -27 -69 10 -6 70 -32 134 -57 63 -26
204 -86 312 -133 108 -47 206 -86 216 -86 22 0 37 32 46 97 l6 42 -54 15 c-30
9 -57 16 -61 16 -3 0 -86 31 -183 69 -161 62 -332 122 -350 121 -4 -1 -21 -7
-39 -15z m124 -30 c108 -34 441 -164 423 -165 -13 0 -13 -1 0 -10 27 -18 -7
-11 -89 19 -89 31 -107 32 -36 1 79 -34 163 -52 183 -40 14 9 12 10 -13 6 -16
-3 -24 -3 -16 1 11 5 11 7 0 15 -10 7 -4 8 16 3 37 -8 40 -11 28 -27 -5 -7 -7
-26 -3 -43 l6 -30 8 32 c7 30 22 50 31 41 2 -2 -1 -25 -7 -51 -9 -45 -12 -48
-35 -42 -14 3 -132 52 -262 109 -130 57 -247 107 -261 111 -70 21 -118 47
-113 62 5 13 35 31 55 32 4 1 42 -10 85 -24z"/>
<path d="M2910 1748 c-20 -22 -26 -55 -12 -73 4 -6 20 -17 35 -24 15 -8 45
-29 65 -46 35 -30 147 -94 275 -158 69 -34 270 -107 296 -107 33 0 56 105 29
128 -7 6 -76 31 -153 57 -178 59 -300 118 -394 189 -81 61 -109 68 -141 34z
m141 -59 c102 -74 182 -112 362 -174 75 -26 137 -52 137 -56 0 -12 5 -13 -89
21 -46 17 -86 29 -88 26 -3 -3 6 -8 20 -12 15 -3 25 -10 24 -16 -1 -5 25 -20
57 -34 33 -13 63 -29 67 -35 3 -6 9 4 13 21 9 47 31 32 29 -20 -1 -23 -5 -45
-8 -48 -8 -8 -190 56 -280 99 -134 65 -243 127 -295 168 -28 22 -59 43 -70 46
-19 6 -27 35 -14 48 9 8 62 -28 94 -64 14 -15 54 -44 90 -64 36 -20 81 -46
100 -57 l35 -20 -25 21 c-14 11 -54 36 -90 55 -36 19 -81 51 -100 71 -19 20
-47 43 -62 51 -16 8 -28 19 -28 24 0 24 43 6 121 -51z m420 -223 c19 -7 43
-16 53 -20 10 -3 17 -9 14 -11 -3 -3 -31 6 -64 20 -32 13 -54 24 -48 25 6 0
27 -6 45 -14z"/>
<path d="M1527 1135 c-24 -23 -33 -104 -15 -134 13 -24 19 -26 73 -23 33 1 64
7 69 12 7 7 4 10 -7 10 -15 0 -16 4 -7 20 13 25 5 40 -20 40 -23 0 -42 -32
-34 -54 8 -21 -19 -31 -46 -16 l-21 11 22 31 c24 33 32 108 13 115 -7 2 -19
-3 -27 -12z m33 -20 c0 -9 -8 -30 -17 -48 l-18 -32 -3 27 c-3 29 13 68 28 68
6 0 10 -7 10 -15z m70 -79 c0 -16 -18 -31 -27 -22 -8 8 5 36 17 36 5 0 10 -6
10 -14z"/>
<path d="M1596 1141 c-9 -14 65 -24 78 -11 8 9 6 11 -11 6 -12 -4 -24 -2 -28
4 -8 12 -32 13 -39 1z"/>
<path d="M1816 1104 c-14 -102 3 -129 48 -77 l25 28 1 -37 c0 -21 5 -38 11
-38 6 0 8 7 5 16 -3 9 -6 27 -6 40 0 33 -31 31 -53 -3 l-17 -28 1 67 c3 81 -6
98 -15 32z"/>
<path d="M2261 1113 c-6 -21 -11 -53 -11 -72 l0 -34 24 22 c29 27 52 20 36
-10 -6 -10 -20 -19 -30 -19 -11 0 -20 -4 -20 -10 0 -17 36 -11 53 8 10 10 17
29 17 41 0 20 -4 23 -31 19 l-31 -5 6 49 c8 57 1 63 -13 11z"/>
<path d="M2786 1119 c-3 -17 -6 -51 -6 -75 0 -36 3 -44 18 -44 11 0 24 12 31
26 14 31 20 27 31 -18 8 -33 8 -33 9 10 1 35 -2 42 -19 42 -10 0 -24 -9 -30
-20 -20 -38 -29 -21 -23 45 6 68 0 88 -11 34z"/>
<path d="M1967 1112 c-24 -26 -21 -39 3 -17 20 18 21 18 35 -1 17 -22 20 -12
5 17 -13 24 -22 24 -43 1z"/>
<path d="M2680 1055 c0 -78 9 -93 28 -50 6 14 18 25 27 25 8 0 15 5 15 10 0
14 -12 12 -39 -7 l-24 -16 6 56 c3 33 2 57 -4 57 -5 0 -9 -34 -9 -75z"/>
<path d="M2935 1110 c-3 -5 1 -10 9 -10 10 0 13 -6 10 -17 -5 -16 -4 -16 10 1
8 10 13 23 10 27 -7 12 -31 11 -39 -1z"/>
<path d="M3312 1108 c-19 -19 -14 -29 8 -16 17 11 22 10 30 -2 5 -8 12 -11 16
-7 9 8 -14 37 -30 37 -7 0 -17 -5 -24 -12z"/>
<path d="M1608 1099 c-27 -15 -22 -32 4 -18 16 9 23 9 26 0 2 -6 8 -11 13 -11
6 0 5 8 -1 20 -12 23 -18 24 -42 9z"/>
<path d="M1946 1045 c-20 -20 -20 -26 -2 -50 12 -16 19 -18 43 -10 22 8 28 17
28 40 0 25 -4 31 -26 33 -15 2 -34 -4 -43 -13z m58 -4 c11 -18 -6 -41 -30 -41
-17 0 -24 6 -24 18 0 10 3 22 7 25 9 10 41 8 47 -2z"/>
<path d="M2052 1023 c2 -31 7 -39 26 -41 12 -2 22 1 22 7 0 6 -10 11 -21 11
-18 0 -21 5 -17 30 3 17 1 30 -4 30 -5 0 -8 -17 -6 -37z"/>
<path d="M2362 1023 c2 -31 7 -39 26 -41 12 -2 22 1 22 7 0 6 -10 11 -21 11
-18 0 -21 5 -17 30 3 17 1 30 -4 30 -5 0 -8 -17 -6 -37z"/>
<path d="M2445 1036 c-27 -41 4 -72 45 -46 9 6 17 5 22 -3 5 -7 8 -3 8 12 0
18 -4 22 -17 16 -41 -17 -53 -17 -53 -2 0 20 27 40 45 33 8 -3 15 -1 15 4 0
20 -50 10 -65 -14z"/>
<path d="M2962 1032 c-14 -40 -42 -41 -53 -2 l-7 25 -1 -26 c-1 -37 24 -57 51
-40 15 9 23 10 34 0 11 -9 18 -9 26 -1 9 9 8 12 -4 12 -8 0 -19 14 -25 33 l-9
32 -12 -33z"/>
<path d="M3182 1048 c-26 -26 -6 -68 33 -68 11 0 31 7 43 16 12 8 22 10 22 5
0 -17 46 -24 70 -11 32 17 24 64 -12 68 -16 2 -28 -1 -28 -6 0 -6 8 -8 19 -5
22 6 34 -9 25 -31 -4 -10 -18 -16 -35 -16 -23 0 -29 5 -29 21 l0 20 -26 -20
c-15 -12 -38 -21 -51 -21 -34 0 -28 41 7 51 l25 7 -25 1 c-15 1 -31 -4 -38
-11z"/>
<path d="M3400 1049 c0 -5 5 -7 11 -3 14 8 29 -14 29 -46 1 -24 1 -24 30 10
19 22 30 29 30 19 0 -8 7 -24 15 -35 14 -18 14 -16 9 16 -9 50 -20 57 -48 31
-23 -22 -23 -22 -29 -2 -5 22 -47 30 -47 10z"/>
<path d="M3560 1045 c-10 -12 -8 -21 8 -50 12 -19 17 -37 11 -40 -12 -8 -12
-52 1 -60 20 -13 42 17 36 48 -4 18 -1 36 6 45 11 13 10 14 -8 8 -14 -4 -26
-1 -34 9 -16 19 -5 49 15 41 8 -3 15 -1 15 4 0 15 -36 12 -50 -5z m36 -132
c-11 -11 -17 4 -9 23 7 18 8 18 11 1 2 -10 1 -21 -2 -24z"/>
</g>
</svg>
